<?xml version="1.0"?><svg fill="#000000" xmlns="http://www.w3.org/2000/svg"  viewBox="0 0 50 50" width="50px" height="50px">    <path d="M37.035,5.621L31,2l4.715,5.196C39.15,11.074,41,14.744,41,19c0,5.732-3.358,8-7,8c-4.851,0-6-3.783-6-5 c0-3.914,3.548-7.157,6.758-8.288l1.59-0.559l-4.697-4.511c-0.504,0.322-0.856,0.564-0.856,0.564 c-0.418,0.286-1.04,0.766-1.776,1.501c0,0-1.098,1.23-2.02,2.293c0-2,0.357-3.296,0.357-3.296c0.357-1.15,1.036-2.068,1.589-2.67 l0.711-0.704L25.029,2L25,2.025L24.971,2l-4.628,4.328l0.71,0.705c0.552,0.602,1.232,1.52,1.589,2.67C22.643,9.704,23,11,23,13 c-1.172-1.516-2.02-2.293-2.02-2.293c-0.735-0.735-1.357-1.214-1.776-1.501c0,0-0.352-0.242-0.856-0.564l-4.697,4.511l1.59,0.559 C18.452,14.843,22,18.086,22,22c0,1.217-1.149,5-6,5c-3.642,0-7-2.268-7-8c0-4.256,1.85-7.926,5.285-11.804L19,2l-6.035,3.621 C6.467,9.464,2.471,15.942,2,23.462v1.72C2,37.764,12.318,48,25,48c12.682,0,23-10.236,23-22.818v-1.72 C47.529,15.942,43.533,9.464,37.035,5.621z"/></svg>