<?xml version="1.0" encoding="UTF-8"?>
<svg xmlns="http://www.w3.org/2000/svg" xmlns:xlink="http://www.w3.org/1999/xlink" viewBox="0 0 50 50" width="50px" height="50px">
<g id="surface49948093">
<path style=" stroke:none;fill-rule:nonzero;fill:rgb(90.588236%,29.803923%,23.529412%);fill-opacity:1;" d="M 25 2 C 12.308594 2 2 12.308594 2 25 C 2 37.691406 12.308594 48 25 48 C 37.691406 48 48 37.691406 48 25 C 48 12.308594 37.691406 2 25 2 Z M 24 4.023438 L 24 6.039062 C 22.671875 6.113281 21.339844 6.324219 20.007812 6.6875 C 19.476562 6.832031 19.160156 7.382812 19.304688 7.914062 L 19.835938 9.871094 C 17.964844 10.511719 16.214844 11.5 14.699219 12.773438 L 13.296875 11.308594 C 13.117188 11.117188 12.863281 11.007812 12.597656 11.003906 C 12.339844 10.996094 12.078125 11.09375 11.882812 11.277344 C 10.824219 12.292969 9.90625 13.402344 9.132812 14.574219 L 7.398438 13.558594 C 10.972656 8.066406 17.03125 4.351562 24 4.027344 Z M 26 4.035156 C 32.964844 4.359375 39.027344 8.070312 42.601562 13.558594 L 40.867188 14.570312 C 40.09375 13.402344 39.175781 12.292969 38.113281 11.277344 C 37.921875 11.09375 37.675781 10.996094 37.402344 11 C 37.136719 11.007812 36.882812 11.117188 36.699219 11.308594 L 35.300781 12.773438 C 33.785156 11.5 32.039062 10.511719 30.164062 9.871094 L 30.695312 7.914062 C 30.84375 7.382812 30.527344 6.832031 29.992188 6.6875 C 28.660156 6.324219 27.332031 6.113281 26 6.039062 Z M 25 14 C 25.96875 14 26.90625 14.125 27.800781 14.359375 L 27.886719 14.402344 L 26.578125 19.207031 L 26.582031 19.207031 C 27.535156 19.46875 28.394531 19.957031 29.097656 20.613281 L 29.144531 20.660156 L 32.601562 17.046875 L 32.667969 17.113281 C 34.03125 18.4375 35.054688 20.121094 35.589844 22.007812 L 30.777344 23.367188 C 30.921875 23.886719 31 24.433594 31 25 C 31 25.566406 30.921875 26.113281 30.777344 26.632812 L 35.589844 27.992188 C 35.046875 29.910156 34 31.613281 32.601562 32.949219 C 32.578125 32.929688 29.148438 29.339844 29.148438 29.335938 C 28.433594 30.019531 27.554688 30.523438 26.578125 30.789062 L 27.894531 35.613281 C 27.90625 35.609375 27.921875 35.609375 27.933594 35.605469 L 27.894531 35.613281 C 26.972656 35.863281 26.003906 36 25 36 C 23.996094 36 23.027344 35.867188 22.105469 35.613281 L 22.179688 35.339844 C 22.179688 35.339844 23.421875 30.789062 23.421875 30.789062 C 22.445312 30.523438 21.566406 30.015625 20.855469 29.335938 L 17.402344 32.949219 L 17.398438 32.949219 C 16 31.609375 14.953125 29.910156 14.414062 27.992188 L 19.226562 26.628906 L 19.226562 26.625 C 19.078125 26.109375 19 25.566406 19 25 C 19 24.433594 19.078125 23.886719 19.226562 23.367188 C 19.222656 23.367188 14.414062 22.003906 14.414062 22.003906 C 14.953125 20.089844 16 18.386719 17.402344 17.046875 L 17.40625 17.050781 L 20.851562 20.660156 L 20.855469 20.660156 C 21.566406 19.980469 22.445312 19.476562 23.421875 19.210938 L 22.105469 14.386719 C 23.027344 14.132812 23.996094 14 25 14 Z M 6.386719 15.285156 L 8.117188 16.292969 C 7.550781 17.40625 7.085938 18.589844 6.734375 19.835938 C 6.664062 20.089844 6.691406 20.363281 6.820312 20.597656 C 6.953125 20.828125 7.167969 20.996094 7.425781 21.070312 L 9.371094 21.621094 C 9.125 22.746094 9 23.878906 9 25 C 9 26.121094 9.125 27.253906 9.371094 28.378906 L 7.421875 28.929688 C 7.167969 29 6.949219 29.171875 6.820312 29.402344 C 6.691406 29.636719 6.660156 29.910156 6.730469 30.164062 C 7.085938 31.410156 7.550781 32.597656 8.117188 33.707031 L 6.386719 34.714844 C 4.867188 31.8125 4 28.511719 4 25 C 4 21.488281 4.867188 18.1875 6.386719 15.285156 Z M 43.613281 15.285156 C 45.132812 18.1875 46 21.488281 46 25 C 46 28.511719 45.132812 31.8125 43.613281 34.714844 L 41.882812 33.707031 C 42.449219 32.597656 42.914062 31.410156 43.269531 30.164062 C 43.339844 29.910156 43.308594 29.636719 43.179688 29.402344 C 43.050781 29.171875 42.832031 29.003906 42.578125 28.929688 L 40.628906 28.378906 C 40.875 27.253906 41 26.121094 41 25 C 41 23.878906 40.875 22.746094 40.628906 21.621094 L 42.578125 21.070312 C 42.832031 21 43.046875 20.828125 43.179688 20.597656 C 43.308594 20.363281 43.339844 20.089844 43.269531 19.835938 C 42.914062 18.589844 42.453125 17.402344 41.886719 16.292969 Z M 40.867188 35.425781 L 42.601562 36.441406 C 39.027344 41.933594 32.96875 45.648438 26 45.972656 L 26 43.964844 C 27.324219 43.890625 28.664062 43.679688 29.996094 43.3125 C 30.527344 43.167969 30.839844 42.617188 30.695312 42.085938 L 30.164062 40.128906 C 32.035156 39.488281 33.785156 38.5 35.300781 37.222656 L 36.703125 38.691406 C 36.886719 38.882812 37.140625 38.992188 37.40625 39 C 37.675781 38.996094 37.925781 38.90625 38.117188 38.722656 C 39.179688 37.707031 40.09375 36.597656 40.867188 35.425781 Z M 9.132812 35.429688 C 9.90625 36.597656 10.820312 37.707031 11.882812 38.722656 C 12.074219 38.90625 12.339844 39.019531 12.597656 39 C 12.859375 38.996094 13.113281 38.882812 13.296875 38.691406 L 14.699219 37.226562 C 16.214844 38.5 17.960938 39.488281 19.835938 40.128906 L 19.304688 42.085938 C 19.15625 42.617188 19.472656 43.167969 20.003906 43.316406 C 21.335938 43.679688 22.675781 43.890625 24 43.964844 L 24 45.976562 C 17.03125 45.648438 10.972656 41.933594 7.398438 36.441406 Z M 9.132812 35.429688 "/>
</g>
</svg>
