<?xml version="1.0" encoding="UTF-8"?>
<svg xmlns="http://www.w3.org/2000/svg" xmlns:xlink="http://www.w3.org/1999/xlink" viewBox="0 0 50 50" width="50px" height="50px">
<g id="surface50078402">
<path style=" stroke:none;fill-rule:nonzero;fill:rgb(100%,75.686276%,2.745098%);fill-opacity:1;" d="M 25 4.167969 C 13.542969 4.167969 4.167969 13.542969 4.167969 25 C 4.167969 36.457031 13.542969 45.832031 25 45.832031 C 36.457031 45.832031 45.832031 36.457031 45.832031 25 C 45.832031 13.542969 36.457031 4.167969 25 4.167969 Z M 26.042969 6.355469 C 32.1875 6.667969 37.5 9.894531 40.625 14.792969 L 39.6875 15.3125 C 39.0625 14.375 38.332031 13.4375 37.5 12.605469 L 35.207031 14.894531 C 33.4375 13.125 31.25 11.875 28.855469 11.25 L 29.6875 8.125 C 28.542969 7.8125 27.394531 7.605469 26.144531 7.605469 L 26.144531 6.355469 Z M 31.042969 23.542969 C 31.042969 23.75 31.144531 23.855469 31.144531 24.0625 C 31.144531 24.167969 31.144531 24.167969 31.144531 24.269531 C 31.144531 24.480469 31.144531 24.792969 31.144531 25 C 31.144531 25.207031 31.144531 25.519531 31.144531 25.730469 C 31.144531 25.832031 31.144531 25.832031 31.144531 25.9375 C 31.144531 26.144531 31.042969 26.355469 31.042969 26.457031 L 31.042969 26.5625 L 36.042969 27.917969 C 35.519531 29.894531 34.480469 31.667969 33.125 33.019531 L 29.480469 29.375 C 29.269531 29.582031 29.167969 29.6875 28.957031 29.894531 L 28.855469 30 C 28.644531 30.105469 28.542969 30.207031 28.332031 30.3125 L 28.230469 30.417969 C 28.019531 30.519531 27.8125 30.625 27.5 30.730469 C 27.292969 30.832031 27.082031 30.9375 26.769531 30.9375 C 26.769531 30.9375 26.769531 30.9375 26.667969 30.9375 L 28.019531 35.9375 C 26.980469 36.355469 26.042969 36.457031 25 36.457031 C 23.957031 36.457031 23.019531 36.355469 22.082031 36.042969 L 23.4375 31.042969 L 23.332031 31.042969 C 23.125 30.9375 22.917969 30.9375 22.707031 30.832031 C 22.707031 30.832031 22.707031 30.832031 22.605469 30.832031 C 22.394531 30.730469 22.1875 30.625 21.980469 30.519531 C 21.875 30.519531 21.875 30.417969 21.769531 30.417969 C 21.667969 30.3125 21.457031 30.207031 21.355469 30.105469 C 21.25 30.105469 21.25 30 21.144531 30 C 20.9375 29.894531 20.730469 29.6875 20.625 29.480469 L 16.980469 33.125 C 15.625 31.769531 14.582031 30 14.0625 28.019531 L 19.0625 26.667969 L 19.0625 26.5625 C 19.0625 26.355469 18.957031 26.25 18.957031 26.042969 C 18.957031 25.9375 18.957031 25.9375 18.957031 25.832031 C 18.957031 25.625 18.957031 25.3125 18.957031 25.105469 C 18.957031 24.894531 18.957031 24.582031 18.957031 24.375 C 18.957031 24.269531 18.957031 24.269531 18.957031 24.167969 C 18.957031 23.957031 19.0625 23.855469 19.0625 23.644531 L 19.0625 23.542969 L 14.0625 22.1875 C 14.582031 20.207031 15.625 18.4375 16.980469 17.082031 L 20.625 20.730469 C 20.832031 20.519531 20.9375 20.417969 21.144531 20.207031 C 21.144531 20.207031 21.25 20.105469 21.355469 20.105469 C 21.457031 20 21.667969 19.894531 21.875 19.792969 L 21.980469 19.6875 C 22.394531 19.480469 22.917969 19.269531 23.332031 19.0625 C 23.332031 19.0625 23.332031 19.0625 23.4375 19.0625 L 22.082031 14.0625 C 23.019531 13.644531 23.957031 13.542969 25 13.542969 C 26.042969 13.542969 26.980469 13.644531 27.917969 13.957031 L 26.5625 18.957031 L 26.667969 18.957031 C 26.875 19.0625 27.082031 19.0625 27.292969 19.167969 L 27.394531 19.167969 C 27.605469 19.269531 27.8125 19.375 28.019531 19.480469 C 28.125 19.480469 28.125 19.582031 28.230469 19.582031 C 28.332031 19.6875 28.542969 19.792969 28.644531 19.894531 C 28.75 19.894531 28.75 20 28.855469 20 C 29.0625 20.105469 29.167969 20.3125 29.375 20.417969 L 33.019531 16.769531 C 34.375 18.125 35.417969 19.894531 35.9375 21.875 L 30.9375 23.230469 C 31.042969 23.4375 31.042969 23.4375 31.042969 23.542969 Z M 23.957031 6.355469 L 23.957031 7.394531 C 22.707031 7.5 21.5625 7.707031 20.417969 7.917969 L 21.25 11.042969 C 18.855469 11.667969 16.667969 12.917969 14.894531 14.6875 L 12.5 12.5 C 11.667969 13.332031 10.9375 14.269531 10.207031 15.3125 L 9.375 14.6875 C 12.5 9.894531 17.8125 6.667969 23.957031 6.355469 Z M 8.332031 33.4375 C 7.082031 30.9375 6.25 28.019531 6.25 25 C 6.25 21.980469 6.980469 19.0625 8.332031 16.5625 L 9.269531 17.082031 C 8.75 18.125 8.332031 19.269531 8.019531 20.417969 L 11.144531 21.457031 C 10.832031 22.605469 10.730469 23.75 10.730469 25 C 10.730469 26.25 10.9375 27.5 11.25 28.644531 L 8.125 29.582031 C 8.4375 30.730469 8.855469 31.875 9.375 32.917969 Z M 23.957031 43.644531 C 17.8125 43.332031 12.5 40.105469 9.375 35.207031 L 10.3125 34.6875 C 10.9375 35.625 11.667969 36.5625 12.5 37.394531 L 14.792969 35.105469 C 16.457031 36.769531 18.644531 38.019531 21.042969 38.75 L 20.417969 41.980469 C 21.5625 42.292969 22.707031 42.5 23.957031 42.5 Z M 26.042969 43.644531 L 26.042969 42.605469 C 27.292969 42.5 28.4375 42.394531 29.582031 42.082031 L 28.75 38.957031 C 31.144531 38.332031 33.332031 37.082031 35.105469 35.3125 L 37.5 37.5 C 38.332031 36.667969 39.0625 35.730469 39.6875 34.792969 L 40.625 35.3125 C 37.5 40.105469 32.1875 43.332031 26.042969 43.644531 Z M 40.730469 32.917969 C 41.25 31.875 41.667969 30.730469 41.980469 29.582031 L 38.855469 28.75 C 39.167969 27.605469 39.375 26.355469 39.375 25 C 39.375 23.75 39.167969 22.605469 38.957031 21.457031 L 42.082031 20.417969 C 41.769531 19.269531 41.355469 18.125 40.730469 16.980469 L 41.667969 16.457031 C 43.019531 19.0625 43.75 21.875 43.75 25 C 43.75 28.019531 43.019531 30.9375 41.667969 33.4375 Z M 40.730469 32.917969 "/>
</g>
</svg>
