<?xml version="1.0" encoding="UTF-8"?>
<svg xmlns="http://www.w3.org/2000/svg" xmlns:xlink="http://www.w3.org/1999/xlink" viewBox="0 0 50 50" width="50px" height="50px">
<g id="surface33419282">
<path style=" stroke:none;fill-rule:nonzero;fill:rgb(0%,58.039218%,19.607843%);fill-opacity:1;" d="M 25 48.4375 C 12.078125 48.4375 1.5625 37.921875 1.5625 25 C 1.5625 24.375 1.5625 23.78125 1.683594 23.1875 C 2.246094 16.019531 5.480469 10.226562 11.082031 6.292969 C 8.246094 10.148438 6.972656 14.164062 7.1875 18.515625 C 7.59375 24.027344 10.933594 28.558594 14.960938 29.058594 C 15.113281 29.066406 15.234375 29.070312 15.359375 29.070312 C 21.261719 29.070312 21.5625 22.554688 21.5625 21.25 C 21.5625 16.503906 19.277344 12.675781 15.5625 11.132812 L 18.78125 7.910156 C 20.109375 8.875 22.027344 10.316406 23.484375 12.664062 L 24.0625 13.597656 L 24.0625 12.5 C 24.0625 11.183594 23.148438 7.433594 21.648438 5.042969 L 25 1.691406 L 28.351562 5.042969 C 26.851562 7.433594 25.9375 11.183594 25.9375 12.5 L 25.9375 13.597656 L 26.515625 12.664062 C 27.972656 10.3125 29.890625 8.875 31.21875 7.910156 L 34.4375 11.128906 C 30.722656 12.675781 28.4375 16.503906 28.4375 21.25 C 28.4375 22.0625 28.539062 24.152344 29.476562 25.972656 C 30.523438 28 32.308594 29.070312 34.640625 29.070312 C 34.761719 29.070312 34.886719 29.066406 35.015625 29.0625 C 39.078125 28.554688 42.417969 24.132812 42.8125 18.773438 C 43.03125 14.335938 41.71875 10.144531 38.90625 6.28125 C 44.515625 10.214844 47.753906 16.011719 48.3125 23.148438 C 48.4375 23.78125 48.4375 24.371094 48.4375 25 C 48.4375 37.921875 37.921875 48.4375 25 48.4375 Z M 25 48.4375 "/>
<path style=" stroke:none;fill-rule:nonzero;fill:rgb(0%,58.039218%,19.607843%);fill-opacity:1;" d="M 25 2.132812 L 27.957031 5.089844 C 26.589844 7.402344 25.625 11.011719 25.625 12.5 L 25.625 14.695312 L 26.78125 12.828125 C 28.136719 10.644531 29.84375 9.304688 31.1875 8.320312 L 33.898438 11.03125 C 30.3125 12.730469 28.125 16.554688 28.125 21.25 C 28.125 25.183594 29.835938 29.382812 34.640625 29.382812 C 34.769531 29.382812 34.898438 29.378906 35.027344 29.375 L 35.050781 29.375 L 35.078125 29.371094 C 39.261719 28.847656 42.71875 24.300781 43.125 18.78125 C 43.320312 14.875 42.34375 11.148438 40.214844 7.671875 C 44.828125 11.496094 47.5 16.789062 48 23.171875 L 48.003906 23.210938 L 48.011719 23.25 C 48.125 23.8125 48.125 24.390625 48.125 25 C 48.125 37.75 37.75 48.125 25 48.125 C 12.25 48.125 1.875 37.75 1.875 25 C 1.875 24.390625 1.875 23.8125 1.988281 23.246094 L 1.996094 23.210938 L 2 23.171875 C 2.496094 16.808594 5.15625 11.523438 9.75 7.703125 C 7.628906 11.132812 6.6875 14.703125 6.878906 18.546875 C 7.292969 24.195312 10.75 28.847656 14.921875 29.371094 L 14.945312 29.375 L 14.972656 29.375 C 15.101562 29.378906 15.230469 29.382812 15.359375 29.382812 C 20.164062 29.382812 21.875 25.183594 21.875 21.25 C 21.875 16.554688 19.6875 12.730469 16.101562 11.03125 L 18.8125 8.320312 C 20.15625 9.304688 21.863281 10.644531 23.21875 12.828125 L 24.375 14.695312 L 24.375 12.5 C 24.375 11.011719 23.410156 7.402344 22.042969 5.089844 L 25 2.132812 M 25 1.25 L 21.25 5 C 22.75 7.25 23.75 11.125 23.75 12.5 C 22.179688 9.96875 20.125 8.5 18.75 7.5 L 15 11.25 C 18.875 12.625 21.25 16.5 21.25 21.25 C 21.25 23.449219 20.53125 28.757812 15.359375 28.757812 C 15.242188 28.757812 15.121094 28.753906 15 28.75 C 11 28.25 7.875 23.625 7.5 18.5 C 7.25 13.5 9 9.125 12.5 5 C 6 8.875 2 15.125 1.375 23.125 C 1.25 23.75 1.25 24.375 1.25 25 C 1.25 38.125 11.875 48.75 25 48.75 C 38.125 48.75 48.75 38.125 48.75 25 C 48.75 24.375 48.75 23.75 48.625 23.125 C 48 15.125 44 8.875 37.5 5 C 41 9.125 42.75 13.75 42.5 18.75 C 42.125 23.875 39 28.25 35 28.75 C 34.878906 28.753906 34.757812 28.757812 34.640625 28.757812 C 29.46875 28.757812 28.75 23.449219 28.75 21.25 C 28.75 16.5 31.125 12.625 35 11.25 L 31.25 7.5 C 29.875 8.5 27.820312 9.96875 26.25 12.5 C 26.25 11.125 27.25 7.25 28.75 5 Z M 25 1.25 "/>
</g>
</svg>
